# MagicaVoxel @ Ephtracy

# material
mtllib Bridge Section.mtl
usemtl palette

# normals
vn -1 0 0
vn 1 0 0
vn 0 0 1
vn 0 0 -1
vn 0 -1 0
vn 0 1 0

# texcoords
vt 0.939453 0.5
vt 0.951172 0.5

# verts
v -12 0 15
v -12 0 9
v -12 0 7
v -12 0 1
v -12 0 -1
v -12 0 -7
v -12 0 -9
v -12 0 -15
v -12 1 15
v -12 1 9
v -12 1 7
v -12 1 1
v -12 1 -1
v -12 1 -7
v -12 1 -9
v -12 1 -15
v -11 1 12
v -11 1 11
v -11 1 4
v -11 1 3
v -11 1 -4
v -11 1 -5
v -11 1 -12
v -11 1 -13
v -11 8 16
v -11 8 12
v -11 8 11
v -11 8 4
v -11 8 3
v -11 8 -4
v -11 8 -5
v -11 8 -12
v -11 8 -13
v -11 8 -16
v -11 9 16
v -11 9 -16
v 10 1 12
v 10 1 11
v 10 1 4
v 10 1 3
v 10 1 -4
v 10 1 -5
v 10 1 -12
v 10 1 -13
v 10 8 16
v 10 8 12
v 10 8 11
v 10 8 4
v 10 8 3
v 10 8 -4
v 10 8 -5
v 10 8 -12
v 10 8 -13
v 10 8 -16
v 10 9 16
v 10 9 -16
v -10 1 12
v -10 1 11
v -10 1 4
v -10 1 3
v -10 1 -4
v -10 1 -5
v -10 1 -12
v -10 1 -13
v -10 8 16
v -10 8 12
v -10 8 11
v -10 8 4
v -10 8 3
v -10 8 -4
v -10 8 -5
v -10 8 -12
v -10 8 -13
v -10 8 -16
v -10 9 16
v -10 9 -16
v 11 1 12
v 11 1 11
v 11 1 4
v 11 1 3
v 11 1 -4
v 11 1 -5
v 11 1 -12
v 11 1 -13
v 11 8 16
v 11 8 12
v 11 8 11
v 11 8 4
v 11 8 3
v 11 8 -4
v 11 8 -5
v 11 8 -12
v 11 8 -13
v 11 8 -16
v 11 9 16
v 11 9 -16
v 12 0 15
v 12 0 9
v 12 0 7
v 12 0 1
v 12 0 -1
v 12 0 -7
v 12 0 -9
v 12 0 -15
v 12 1 15
v 12 1 9
v 12 1 7
v 12 1 1
v 12 1 -1
v 12 1 -7
v 12 1 -9
v 12 1 -15
v -11 8 16
v -11 9 16
v -10 8 16
v -10 9 16
v 10 8 16
v 10 9 16
v 11 8 16
v 11 9 16
v -12 0 15
v -12 1 15
v 12 0 15
v 12 1 15
v -11 1 12
v -11 8 12
v -10 1 12
v -10 8 12
v 10 1 12
v 10 8 12
v 11 1 12
v 11 8 12
v -12 0 7
v -12 1 7
v 12 0 7
v 12 1 7
v -11 1 4
v -11 8 4
v -10 1 4
v -10 8 4
v 10 1 4
v 10 8 4
v 11 1 4
v 11 8 4
v -12 0 -1
v -12 1 -1
v 12 0 -1
v 12 1 -1
v -11 1 -4
v -11 8 -4
v -10 1 -4
v -10 8 -4
v 10 1 -4
v 10 8 -4
v 11 1 -4
v 11 8 -4
v -12 0 -9
v -12 1 -9
v 12 0 -9
v 12 1 -9
v -11 1 -12
v -11 8 -12
v -10 1 -12
v -10 8 -12
v 10 1 -12
v 10 8 -12
v 11 1 -12
v 11 8 -12
v -11 1 11
v -11 8 11
v -10 1 11
v -10 8 11
v 10 1 11
v 10 8 11
v 11 1 11
v 11 8 11
v -12 0 9
v -12 1 9
v 12 0 9
v 12 1 9
v -11 1 3
v -11 8 3
v -10 1 3
v -10 8 3
v 10 1 3
v 10 8 3
v 11 1 3
v 11 8 3
v -12 0 1
v -12 1 1
v 12 0 1
v 12 1 1
v -11 1 -5
v -11 8 -5
v -10 1 -5
v -10 8 -5
v 10 1 -5
v 10 8 -5
v 11 1 -5
v 11 8 -5
v -12 0 -7
v -12 1 -7
v 12 0 -7
v 12 1 -7
v -11 1 -13
v -11 8 -13
v -10 1 -13
v -10 8 -13
v 10 1 -13
v 10 8 -13
v 11 1 -13
v 11 8 -13
v -12 0 -15
v -12 1 -15
v 12 0 -15
v 12 1 -15
v -11 8 -16
v -11 9 -16
v -10 8 -16
v -10 9 -16
v 10 8 -16
v 10 9 -16
v 11 8 -16
v 11 9 -16
v -12 0 15
v 12 0 15
v -12 0 9
v 12 0 9
v -12 0 7
v 12 0 7
v -12 0 1
v 12 0 1
v -12 0 -1
v 12 0 -1
v -12 0 -7
v 12 0 -7
v -12 0 -9
v 12 0 -9
v -12 0 -15
v 12 0 -15
v -11 8 16
v -10 8 16
v 10 8 16
v 11 8 16
v -11 8 12
v -10 8 12
v 10 8 12
v 11 8 12
v -11 8 11
v -10 8 11
v 10 8 11
v 11 8 11
v -11 8 4
v -10 8 4
v 10 8 4
v 11 8 4
v -11 8 3
v -10 8 3
v 10 8 3
v 11 8 3
v -11 8 -4
v -10 8 -4
v 10 8 -4
v 11 8 -4
v -11 8 -5
v -10 8 -5
v 10 8 -5
v 11 8 -5
v -11 8 -12
v -10 8 -12
v 10 8 -12
v 11 8 -12
v -11 8 -13
v -10 8 -13
v 10 8 -13
v 11 8 -13
v -11 8 -16
v -10 8 -16
v 10 8 -16
v 11 8 -16
v -12 1 15
v 12 1 15
v -11 1 12
v -10 1 12
v 10 1 12
v 11 1 12
v -11 1 11
v -10 1 11
v 10 1 11
v 11 1 11
v -12 1 9
v 12 1 9
v -12 1 7
v 12 1 7
v -11 1 4
v -10 1 4
v 10 1 4
v 11 1 4
v -11 1 3
v -10 1 3
v 10 1 3
v 11 1 3
v -12 1 1
v 12 1 1
v -12 1 -1
v 12 1 -1
v -11 1 -4
v -10 1 -4
v 10 1 -4
v 11 1 -4
v -11 1 -5
v -10 1 -5
v 10 1 -5
v 11 1 -5
v -12 1 -7
v 12 1 -7
v -12 1 -9
v 12 1 -9
v -11 1 -12
v -10 1 -12
v 10 1 -12
v 11 1 -12
v -11 1 -13
v -10 1 -13
v 10 1 -13
v 11 1 -13
v -12 1 -15
v 12 1 -15
v -11 9 16
v -10 9 16
v 10 9 16
v 11 9 16
v -11 9 -16
v -10 9 -16
v 10 9 -16
v 11 9 -16

# faces
f 9/1/1 2/1/1 1/1/1
f 10/1/1 2/1/1 9/1/1
f 11/1/1 4/1/1 3/1/1
f 12/1/1 4/1/1 11/1/1
f 13/1/1 6/1/1 5/1/1
f 14/1/1 6/1/1 13/1/1
f 15/1/1 8/1/1 7/1/1
f 16/1/1 8/1/1 15/1/1
f 26/2/1 18/2/1 17/2/1
f 27/2/1 18/2/1 26/2/1
f 28/2/1 20/2/1 19/2/1
f 29/2/1 20/2/1 28/2/1
f 30/2/1 22/2/1 21/2/1
f 31/2/1 22/2/1 30/2/1
f 32/2/1 24/2/1 23/2/1
f 33/2/1 24/2/1 32/2/1
f 35/2/1 31/2/1 30/2/1
f 35/2/1 34/2/1 33/2/1
f 35/2/1 33/2/1 32/2/1
f 35/2/1 32/2/1 31/2/1
f 35/2/1 27/2/1 26/2/1
f 35/2/1 30/2/1 29/2/1
f 35/2/1 29/2/1 28/2/1
f 35/2/1 28/2/1 27/2/1
f 35/2/1 26/2/1 25/2/1
f 36/2/1 34/2/1 35/2/1
f 46/2/1 38/2/1 37/2/1
f 47/2/1 38/2/1 46/2/1
f 48/2/1 40/2/1 39/2/1
f 49/2/1 40/2/1 48/2/1
f 50/2/1 42/2/1 41/2/1
f 51/2/1 42/2/1 50/2/1
f 52/2/1 44/2/1 43/2/1
f 53/2/1 44/2/1 52/2/1
f 55/2/1 51/2/1 50/2/1
f 55/2/1 54/2/1 53/2/1
f 55/2/1 53/2/1 52/2/1
f 55/2/1 52/2/1 51/2/1
f 55/2/1 47/2/1 46/2/1
f 55/2/1 50/2/1 49/2/1
f 55/2/1 49/2/1 48/2/1
f 55/2/1 48/2/1 47/2/1
f 55/2/1 46/2/1 45/2/1
f 56/2/1 54/2/1 55/2/1
f 57/2/2 58/2/2 66/2/2
f 66/2/2 58/2/2 67/2/2
f 59/2/2 60/2/2 68/2/2
f 68/2/2 60/2/2 69/2/2
f 61/2/2 62/2/2 70/2/2
f 70/2/2 62/2/2 71/2/2
f 63/2/2 64/2/2 72/2/2
f 72/2/2 64/2/2 73/2/2
f 70/2/2 71/2/2 75/2/2
f 73/2/2 74/2/2 75/2/2
f 72/2/2 73/2/2 75/2/2
f 71/2/2 72/2/2 75/2/2
f 66/2/2 67/2/2 75/2/2
f 69/2/2 70/2/2 75/2/2
f 68/2/2 69/2/2 75/2/2
f 67/2/2 68/2/2 75/2/2
f 65/2/2 66/2/2 75/2/2
f 75/2/2 74/2/2 76/2/2
f 77/2/2 78/2/2 86/2/2
f 86/2/2 78/2/2 87/2/2
f 79/2/2 80/2/2 88/2/2
f 88/2/2 80/2/2 89/2/2
f 81/2/2 82/2/2 90/2/2
f 90/2/2 82/2/2 91/2/2
f 83/2/2 84/2/2 92/2/2
f 92/2/2 84/2/2 93/2/2
f 90/2/2 91/2/2 95/2/2
f 93/2/2 94/2/2 95/2/2
f 92/2/2 93/2/2 95/2/2
f 91/2/2 92/2/2 95/2/2
f 86/2/2 87/2/2 95/2/2
f 89/2/2 90/2/2 95/2/2
f 88/2/2 89/2/2 95/2/2
f 87/2/2 88/2/2 95/2/2
f 85/2/2 86/2/2 95/2/2
f 95/2/2 94/2/2 96/2/2
f 97/1/2 98/1/2 105/1/2
f 105/1/2 98/1/2 106/1/2
f 99/1/2 100/1/2 107/1/2
f 107/1/2 100/1/2 108/1/2
f 101/1/2 102/1/2 109/1/2
f 109/1/2 102/1/2 110/1/2
f 103/1/2 104/1/2 111/1/2
f 111/1/2 104/1/2 112/1/2
f 115/2/3 114/2/3 113/2/3
f 116/2/3 114/2/3 115/2/3
f 119/2/3 118/2/3 117/2/3
f 120/2/3 118/2/3 119/2/3
f 123/1/3 122/1/3 121/1/3
f 124/1/3 122/1/3 123/1/3
f 127/2/3 126/2/3 125/2/3
f 128/2/3 126/2/3 127/2/3
f 131/2/3 130/2/3 129/2/3
f 132/2/3 130/2/3 131/2/3
f 135/1/3 134/1/3 133/1/3
f 136/1/3 134/1/3 135/1/3
f 139/2/3 138/2/3 137/2/3
f 140/2/3 138/2/3 139/2/3
f 143/2/3 142/2/3 141/2/3
f 144/2/3 142/2/3 143/2/3
f 147/1/3 146/1/3 145/1/3
f 148/1/3 146/1/3 147/1/3
f 151/2/3 150/2/3 149/2/3
f 152/2/3 150/2/3 151/2/3
f 155/2/3 154/2/3 153/2/3
f 156/2/3 154/2/3 155/2/3
f 159/1/3 158/1/3 157/1/3
f 160/1/3 158/1/3 159/1/3
f 163/2/3 162/2/3 161/2/3
f 164/2/3 162/2/3 163/2/3
f 167/2/3 166/2/3 165/2/3
f 168/2/3 166/2/3 167/2/3
f 169/2/4 170/2/4 171/2/4
f 171/2/4 170/2/4 172/2/4
f 173/2/4 174/2/4 175/2/4
f 175/2/4 174/2/4 176/2/4
f 177/1/4 178/1/4 179/1/4
f 179/1/4 178/1/4 180/1/4
f 181/2/4 182/2/4 183/2/4
f 183/2/4 182/2/4 184/2/4
f 185/2/4 186/2/4 187/2/4
f 187/2/4 186/2/4 188/2/4
f 189/1/4 190/1/4 191/1/4
f 191/1/4 190/1/4 192/1/4
f 193/2/4 194/2/4 195/2/4
f 195/2/4 194/2/4 196/2/4
f 197/2/4 198/2/4 199/2/4
f 199/2/4 198/2/4 200/2/4
f 201/1/4 202/1/4 203/1/4
f 203/1/4 202/1/4 204/1/4
f 205/2/4 206/2/4 207/2/4
f 207/2/4 206/2/4 208/2/4
f 209/2/4 210/2/4 211/2/4
f 211/2/4 210/2/4 212/2/4
f 213/1/4 214/1/4 215/1/4
f 215/1/4 214/1/4 216/1/4
f 217/2/4 218/2/4 219/2/4
f 219/2/4 218/2/4 220/2/4
f 221/2/4 222/2/4 223/2/4
f 223/2/4 222/2/4 224/2/4
f 227/1/5 226/1/5 225/1/5
f 228/1/5 226/1/5 227/1/5
f 231/1/5 230/1/5 229/1/5
f 232/1/5 230/1/5 231/1/5
f 235/1/5 234/1/5 233/1/5
f 236/1/5 234/1/5 235/1/5
f 239/1/5 238/1/5 237/1/5
f 240/1/5 238/1/5 239/1/5
f 245/2/5 242/2/5 241/2/5
f 246/2/5 242/2/5 245/2/5
f 247/2/5 244/2/5 243/2/5
f 248/2/5 244/2/5 247/2/5
f 253/2/5 250/2/5 249/2/5
f 254/2/5 250/2/5 253/2/5
f 255/2/5 252/2/5 251/2/5
f 256/2/5 252/2/5 255/2/5
f 261/2/5 258/2/5 257/2/5
f 262/2/5 258/2/5 261/2/5
f 263/2/5 260/2/5 259/2/5
f 264/2/5 260/2/5 263/2/5
f 269/2/5 266/2/5 265/2/5
f 270/2/5 266/2/5 269/2/5
f 271/2/5 268/2/5 267/2/5
f 272/2/5 268/2/5 271/2/5
f 277/2/5 274/2/5 273/2/5
f 278/2/5 274/2/5 277/2/5
f 279/2/5 276/2/5 275/2/5
f 280/2/5 276/2/5 279/2/5
f 281/1/6 282/1/6 283/1/6
f 283/1/6 282/1/6 284/1/6
f 284/1/6 282/1/6 285/1/6
f 285/1/6 282/1/6 286/1/6
f 281/1/6 283/1/6 287/1/6
f 284/1/6 285/1/6 288/1/6
f 288/1/6 285/1/6 289/1/6
f 286/1/6 282/1/6 290/1/6
f 288/1/6 289/1/6 291/1/6
f 289/1/6 290/1/6 291/1/6
f 281/1/6 287/1/6 291/1/6
f 287/1/6 288/1/6 291/1/6
f 290/1/6 282/1/6 292/1/6
f 291/1/6 290/1/6 292/1/6
f 293/1/6 294/1/6 295/1/6
f 295/1/6 294/1/6 296/1/6
f 296/1/6 294/1/6 297/1/6
f 297/1/6 294/1/6 298/1/6
f 293/1/6 295/1/6 299/1/6
f 296/1/6 297/1/6 300/1/6
f 300/1/6 297/1/6 301/1/6
f 298/1/6 294/1/6 302/1/6
f 300/1/6 301/1/6 303/1/6
f 301/1/6 302/1/6 303/1/6
f 293/1/6 299/1/6 303/1/6
f 299/1/6 300/1/6 303/1/6
f 302/1/6 294/1/6 304/1/6
f 303/1/6 302/1/6 304/1/6
f 305/1/6 306/1/6 307/1/6
f 307/1/6 306/1/6 308/1/6
f 308/1/6 306/1/6 309/1/6
f 309/1/6 306/1/6 310/1/6
f 305/1/6 307/1/6 311/1/6
f 308/1/6 309/1/6 312/1/6
f 312/1/6 309/1/6 313/1/6
f 310/1/6 306/1/6 314/1/6
f 312/1/6 313/1/6 315/1/6
f 313/1/6 314/1/6 315/1/6
f 305/1/6 311/1/6 315/1/6
f 311/1/6 312/1/6 315/1/6
f 314/1/6 306/1/6 316/1/6
f 315/1/6 314/1/6 316/1/6
f 317/1/6 318/1/6 319/1/6
f 319/1/6 318/1/6 320/1/6
f 320/1/6 318/1/6 321/1/6
f 321/1/6 318/1/6 322/1/6
f 317/1/6 319/1/6 323/1/6
f 320/1/6 321/1/6 324/1/6
f 324/1/6 321/1/6 325/1/6
f 322/1/6 318/1/6 326/1/6
f 324/1/6 325/1/6 327/1/6
f 325/1/6 326/1/6 327/1/6
f 317/1/6 323/1/6 327/1/6
f 323/1/6 324/1/6 327/1/6
f 326/1/6 318/1/6 328/1/6
f 327/1/6 326/1/6 328/1/6
f 329/2/6 330/2/6 333/2/6
f 333/2/6 330/2/6 334/2/6
f 331/2/6 332/2/6 335/2/6
f 335/2/6 332/2/6 336/2/6
