# MagicaVoxel @ Ephtracy

# material
mtllib Stone Wall.mtl
usemtl palette

# normals
vn -1 0 0
vn 1 0 0
vn 0 0 1
vn 0 0 -1
vn 0 -1 0
vn 0 1 0

# texcoords
vt 0.939453 0.5
vt 0.955078 0.5

# verts
v -16 0 16
v -16 0 14
v -16 0 -14
v -16 0 -16
v -16 1 15
v -16 1 14
v -16 1 -14
v -16 1 -15
v -16 4 16
v -16 4 15
v -16 4 -15
v -16 4 -16
v -16 16 15
v -16 16 14
v -16 16 -14
v -16 16 -15
v -16 17 15
v -16 17 14
v -16 17 -14
v -16 17 -15
v -16 27 16
v -16 27 15
v -16 27 -15
v -16 27 -16
v -16 29 16
v -16 29 15
v -16 29 -15
v -16 29 -16
v -16 31 8
v -16 31 7
v -16 31 -7
v -16 31 -8
v -16 32 15
v -16 32 8
v -16 32 7
v -16 32 -7
v -16 32 -8
v -16 32 -15
v -8 4 -14
v -8 4 -15
v -8 16 -14
v -8 16 -15
v -7 17 15
v -7 17 14
v -7 27 15
v -7 27 14
v -7 29 15
v -7 29 14
v -7 31 14
v -7 31 8
v -7 32 15
v -7 32 8
v 1 31 7
v 1 31 -7
v 1 32 7
v 1 32 -7
v 8 17 -14
v 8 17 -15
v 8 27 -14
v 8 27 -15
v 8 29 -14
v 8 29 -15
v 8 31 -8
v 8 31 -14
v 8 32 -8
v 8 32 -15
v 9 1 15
v 9 1 14
v 9 4 15
v 9 16 15
v 9 16 14
v -9 4 -14
v -9 4 -15
v -9 16 -14
v -9 16 -15
v -8 17 15
v -8 17 14
v -8 27 15
v -8 27 14
v -8 29 15
v -8 29 14
v -8 31 14
v -8 31 8
v -8 32 15
v -8 32 8
v 0 31 7
v 0 31 -7
v 0 32 7
v 0 32 -7
v 7 17 -14
v 7 17 -15
v 7 27 -14
v 7 27 -15
v 7 29 -14
v 7 29 -15
v 7 31 -8
v 7 31 -14
v 7 32 -8
v 7 32 -15
v 8 1 15
v 8 1 14
v 8 4 15
v 8 16 15
v 8 16 14
v 16 0 16
v 16 0 14
v 16 0 -14
v 16 0 -16
v 16 1 15
v 16 1 14
v 16 1 -14
v 16 1 -15
v 16 4 16
v 16 4 15
v 16 4 -15
v 16 4 -16
v 16 16 15
v 16 16 14
v 16 16 -14
v 16 16 -15
v 16 17 15
v 16 17 14
v 16 17 -14
v 16 17 -15
v 16 27 16
v 16 27 15
v 16 27 -15
v 16 27 -16
v 16 29 16
v 16 29 15
v 16 29 -15
v 16 29 -16
v 16 31 8
v 16 31 7
v 16 31 -7
v 16 31 -8
v 16 32 15
v 16 32 8
v 16 32 7
v 16 32 -7
v 16 32 -8
v 16 32 -15
v -16 0 16
v -16 4 16
v -16 27 16
v -16 29 16
v 16 0 16
v 16 4 16
v 16 27 16
v 16 29 16
v -16 4 15
v -16 16 15
v -16 17 15
v -16 27 15
v -16 29 15
v -16 32 15
v -8 17 15
v -8 27 15
v -8 29 15
v -8 32 15
v -7 17 15
v -7 27 15
v -7 29 15
v -7 32 15
v 8 4 15
v 8 16 15
v 9 4 15
v 9 16 15
v 16 4 15
v 16 16 15
v 16 17 15
v 16 27 15
v 16 29 15
v 16 32 15
v -16 16 14
v -16 17 14
v -8 17 14
v -8 27 14
v -8 29 14
v -8 31 14
v -7 17 14
v -7 27 14
v -7 29 14
v -7 31 14
v 8 1 14
v 8 16 14
v 9 1 14
v 9 16 14
v 16 16 14
v 16 17 14
v -16 31 7
v -16 32 7
v 0 31 7
v 0 32 7
v 1 31 7
v 1 32 7
v 16 31 7
v 16 32 7
v -16 31 -8
v -16 32 -8
v 7 31 -8
v 7 32 -8
v 8 31 -8
v 8 32 -8
v 16 31 -8
v 16 32 -8
v 8 1 15
v 8 4 15
v 9 1 15
v 9 4 15
v -16 31 8
v -16 32 8
v -8 31 8
v -8 32 8
v -7 31 8
v -7 32 8
v 16 31 8
v 16 32 8
v -16 31 -7
v -16 32 -7
v 0 31 -7
v 0 32 -7
v 1 31 -7
v 1 32 -7
v 16 31 -7
v 16 32 -7
v -16 16 -14
v -16 17 -14
v -9 4 -14
v -9 16 -14
v -8 4 -14
v -8 16 -14
v 7 17 -14
v 7 27 -14
v 7 29 -14
v 7 31 -14
v 8 17 -14
v 8 27 -14
v 8 29 -14
v 8 31 -14
v 16 16 -14
v 16 17 -14
v -16 4 -15
v -16 16 -15
v -16 17 -15
v -16 27 -15
v -16 29 -15
v -16 32 -15
v -9 4 -15
v -9 16 -15
v -8 4 -15
v -8 16 -15
v 7 17 -15
v 7 27 -15
v 7 29 -15
v 7 32 -15
v 8 17 -15
v 8 27 -15
v 8 29 -15
v 8 32 -15
v 16 4 -15
v 16 16 -15
v 16 17 -15
v 16 27 -15
v 16 29 -15
v 16 32 -15
v -16 0 -16
v -16 4 -16
v -16 27 -16
v -16 29 -16
v 16 0 -16
v 16 4 -16
v 16 27 -16
v 16 29 -16
v -16 0 16
v 16 0 16
v -16 0 14
v 16 0 14
v -16 0 -14
v 16 0 -14
v -16 0 -16
v 16 0 -16
v -16 17 15
v -8 17 15
v -7 17 15
v 16 17 15
v -16 17 14
v -8 17 14
v -7 17 14
v 16 17 14
v -16 17 -14
v 7 17 -14
v 8 17 -14
v 16 17 -14
v -16 17 -15
v 7 17 -15
v 8 17 -15
v 16 17 -15
v -16 27 16
v 16 27 16
v -16 27 15
v -8 27 15
v -7 27 15
v 16 27 15
v -8 27 14
v -7 27 14
v 7 27 -14
v 8 27 -14
v -16 27 -15
v 7 27 -15
v 8 27 -15
v 16 27 -15
v -16 27 -16
v 16 27 -16
v 8 1 15
v 9 1 15
v 8 1 14
v 9 1 14
v -16 4 16
v 16 4 16
v -16 4 15
v 8 4 15
v 9 4 15
v 16 4 15
v -9 4 -14
v -8 4 -14
v -16 4 -15
v -9 4 -15
v -8 4 -15
v 16 4 -15
v -16 4 -16
v 16 4 -16
v -16 16 15
v 8 16 15
v 9 16 15
v 16 16 15
v -16 16 14
v 8 16 14
v 9 16 14
v 16 16 14
v -16 16 -14
v -9 16 -14
v -8 16 -14
v 16 16 -14
v -16 16 -15
v -9 16 -15
v -8 16 -15
v 16 16 -15
v -16 29 16
v 16 29 16
v -16 29 15
v -8 29 15
v -7 29 15
v 16 29 15
v -8 29 14
v -7 29 14
v 7 29 -14
v 8 29 -14
v -16 29 -15
v 7 29 -15
v 8 29 -15
v 16 29 -15
v -16 29 -16
v 16 29 -16
v -8 31 14
v -7 31 14
v -16 31 8
v -8 31 8
v -7 31 8
v 16 31 8
v -16 31 7
v 0 31 7
v 1 31 7
v 16 31 7
v -16 31 -7
v 0 31 -7
v 1 31 -7
v 16 31 -7
v -16 31 -8
v 7 31 -8
v 8 31 -8
v 16 31 -8
v 7 31 -14
v 8 31 -14
v -16 32 15
v -8 32 15
v -7 32 15
v 16 32 15
v -16 32 8
v -8 32 8
v -7 32 8
v 16 32 8
v -16 32 7
v 0 32 7
v 1 32 7
v 16 32 7
v -16 32 -7
v 0 32 -7
v 1 32 -7
v 16 32 -7
v -16 32 -8
v 7 32 -8
v 8 32 -8
v 16 32 -8
v -16 32 -15
v 7 32 -15
v 8 32 -15
v 16 32 -15

# faces
f 5/1/1 2/1/1 1/1/1
f 6/2/1 3/2/1 2/2/1
f 6/1/1 2/1/1 5/1/1
f 7/1/1 4/1/1 3/1/1
f 7/2/1 3/2/1 6/2/1
f 8/1/1 4/1/1 7/1/1
f 9/1/1 5/1/1 1/1/1
f 10/2/1 6/2/1 5/2/1
f 10/1/1 5/1/1 9/1/1
f 10/2/1 7/2/1 6/2/1
f 10/2/1 8/2/1 7/2/1
f 11/1/1 4/1/1 8/1/1
f 11/2/1 8/2/1 10/2/1
f 12/1/1 4/1/1 11/1/1
f 13/2/1 11/2/1 10/2/1
f 14/2/1 11/2/1 13/2/1
f 15/2/1 11/2/1 14/2/1
f 16/2/1 11/2/1 15/2/1
f 18/2/1 15/2/1 14/2/1
f 19/2/1 15/2/1 18/2/1
f 22/2/1 18/2/1 17/2/1
f 22/2/1 20/2/1 19/2/1
f 22/2/1 19/2/1 18/2/1
f 23/2/1 20/2/1 22/2/1
f 25/1/1 22/1/1 21/1/1
f 26/2/1 23/2/1 22/2/1
f 26/1/1 22/1/1 25/1/1
f 27/1/1 24/1/1 23/1/1
f 27/2/1 23/2/1 26/2/1
f 28/1/1 24/1/1 27/1/1
f 29/2/1 27/2/1 26/2/1
f 30/2/1 27/2/1 29/2/1
f 31/2/1 27/2/1 30/2/1
f 32/2/1 27/2/1 31/2/1
f 33/2/1 29/2/1 26/2/1
f 34/2/1 29/2/1 33/2/1
f 35/2/1 31/2/1 30/2/1
f 36/2/1 31/2/1 35/2/1
f 37/2/1 27/2/1 32/2/1
f 38/2/1 27/2/1 37/2/1
f 41/2/1 40/2/1 39/2/1
f 42/2/1 40/2/1 41/2/1
f 45/2/1 44/2/1 43/2/1
f 46/2/1 44/2/1 45/2/1
f 49/2/1 48/2/1 47/2/1
f 51/2/1 49/2/1 47/2/1
f 51/2/1 50/2/1 49/2/1
f 52/2/1 50/2/1 51/2/1
f 55/2/1 54/2/1 53/2/1
f 56/2/1 54/2/1 55/2/1
f 59/2/1 58/2/1 57/2/1
f 60/2/1 58/2/1 59/2/1
f 64/2/1 62/2/1 61/2/1
f 65/2/1 64/2/1 63/2/1
f 66/2/1 62/2/1 64/2/1
f 66/2/1 64/2/1 65/2/1
f 69/2/1 68/2/1 67/2/1
f 70/2/1 68/2/1 69/2/1
f 71/2/1 68/2/1 70/2/1
f 72/2/2 73/2/2 74/2/2
f 74/2/2 73/2/2 75/2/2
f 76/2/2 77/2/2 78/2/2
f 78/2/2 77/2/2 79/2/2
f 80/2/2 81/2/2 82/2/2
f 80/2/2 82/2/2 84/2/2
f 82/2/2 83/2/2 84/2/2
f 84/2/2 83/2/2 85/2/2
f 86/2/2 87/2/2 88/2/2
f 88/2/2 87/2/2 89/2/2
f 90/2/2 91/2/2 92/2/2
f 92/2/2 91/2/2 93/2/2
f 94/2/2 95/2/2 97/2/2
f 96/2/2 97/2/2 98/2/2
f 97/2/2 95/2/2 99/2/2
f 98/2/2 97/2/2 99/2/2
f 100/2/2 101/2/2 102/2/2
f 102/2/2 101/2/2 103/2/2
f 103/2/2 101/2/2 104/2/2
f 105/1/2 106/1/2 109/1/2
f 106/2/2 107/2/2 110/2/2
f 109/1/2 106/1/2 110/1/2
f 107/1/2 108/1/2 111/1/2
f 110/2/2 107/2/2 111/2/2
f 111/1/2 108/1/2 112/1/2
f 105/1/2 109/1/2 113/1/2
f 109/2/2 110/2/2 114/2/2
f 113/1/2 109/1/2 114/1/2
f 110/2/2 111/2/2 114/2/2
f 111/2/2 112/2/2 114/2/2
f 112/1/2 108/1/2 115/1/2
f 114/2/2 112/2/2 115/2/2
f 115/1/2 108/1/2 116/1/2
f 114/2/2 115/2/2 117/2/2
f 117/2/2 115/2/2 118/2/2
f 118/2/2 115/2/2 119/2/2
f 119/2/2 115/2/2 120/2/2
f 118/2/2 119/2/2 122/2/2
f 122/2/2 119/2/2 123/2/2
f 121/2/2 122/2/2 126/2/2
f 123/2/2 124/2/2 126/2/2
f 122/2/2 123/2/2 126/2/2
f 126/2/2 124/2/2 127/2/2
f 125/1/2 126/1/2 129/1/2
f 126/2/2 127/2/2 130/2/2
f 129/1/2 126/1/2 130/1/2
f 127/1/2 128/1/2 131/1/2
f 130/2/2 127/2/2 131/2/2
f 131/1/2 128/1/2 132/1/2
f 130/2/2 131/2/2 133/2/2
f 133/2/2 131/2/2 134/2/2
f 134/2/2 131/2/2 135/2/2
f 135/2/2 131/2/2 136/2/2
f 130/2/2 133/2/2 137/2/2
f 137/2/2 133/2/2 138/2/2
f 134/2/2 135/2/2 139/2/2
f 139/2/2 135/2/2 140/2/2
f 136/2/2 131/2/2 141/2/2
f 141/2/2 131/2/2 142/2/2
f 147/1/3 144/1/3 143/1/3
f 148/1/3 144/1/3 147/1/3
f 149/1/3 146/1/3 145/1/3
f 150/1/3 146/1/3 149/1/3
f 157/2/3 154/2/3 153/2/3
f 158/2/3 154/2/3 157/2/3
f 159/2/3 156/2/3 155/2/3
f 160/2/3 156/2/3 159/2/3
f 165/2/3 152/2/3 151/2/3
f 166/2/3 152/2/3 165/2/3
f 169/2/3 168/2/3 167/2/3
f 170/2/3 168/2/3 169/2/3
f 171/2/3 162/2/3 161/2/3
f 172/2/3 162/2/3 171/2/3
f 173/2/3 164/2/3 163/2/3
f 174/2/3 164/2/3 173/2/3
f 177/2/3 176/2/3 175/2/3
f 181/2/3 177/2/3 175/2/3
f 181/2/3 178/2/3 177/2/3
f 182/2/3 178/2/3 181/2/3
f 183/2/3 180/2/3 179/2/3
f 184/2/3 180/2/3 183/2/3
f 186/2/3 181/2/3 175/2/3
f 187/2/3 186/2/3 185/2/3
f 188/2/3 181/2/3 186/2/3
f 188/2/3 186/2/3 187/2/3
f 189/2/3 181/2/3 188/2/3
f 190/2/3 181/2/3 189/2/3
f 193/2/3 192/2/3 191/2/3
f 194/2/3 192/2/3 193/2/3
f 197/2/3 196/2/3 195/2/3
f 198/2/3 196/2/3 197/2/3
f 201/2/3 200/2/3 199/2/3
f 202/2/3 200/2/3 201/2/3
f 205/2/3 204/2/3 203/2/3
f 206/2/3 204/2/3 205/2/3
f 207/1/4 208/1/4 209/1/4
f 209/1/4 208/1/4 210/1/4
f 211/2/4 212/2/4 213/2/4
f 213/2/4 212/2/4 214/2/4
f 215/2/4 216/2/4 217/2/4
f 217/2/4 216/2/4 218/2/4
f 219/2/4 220/2/4 221/2/4
f 221/2/4 220/2/4 222/2/4
f 223/2/4 224/2/4 225/2/4
f 225/2/4 224/2/4 226/2/4
f 227/2/4 228/2/4 230/2/4
f 229/2/4 230/2/4 231/2/4
f 230/2/4 228/2/4 232/2/4
f 231/2/4 230/2/4 232/2/4
f 232/2/4 228/2/4 233/2/4
f 232/2/4 233/2/4 237/2/4
f 233/2/4 234/2/4 237/2/4
f 237/2/4 234/2/4 238/2/4
f 235/2/4 236/2/4 239/2/4
f 239/2/4 236/2/4 240/2/4
f 232/2/4 237/2/4 241/2/4
f 241/2/4 237/2/4 242/2/4
f 243/2/4 244/2/4 249/2/4
f 249/2/4 244/2/4 250/2/4
f 245/2/4 246/2/4 253/2/4
f 253/2/4 246/2/4 254/2/4
f 247/2/4 248/2/4 255/2/4
f 255/2/4 248/2/4 256/2/4
f 251/2/4 252/2/4 261/2/4
f 261/2/4 252/2/4 262/2/4
f 257/2/4 258/2/4 263/2/4
f 263/2/4 258/2/4 264/2/4
f 259/2/4 260/2/4 265/2/4
f 265/2/4 260/2/4 266/2/4
f 267/1/4 268/1/4 271/1/4
f 271/1/4 268/1/4 272/1/4
f 269/1/4 270/1/4 273/1/4
f 273/1/4 270/1/4 274/1/4
f 277/1/5 276/1/5 275/1/5
f 278/1/5 276/1/5 277/1/5
f 279/2/5 278/2/5 277/2/5
f 280/2/5 278/2/5 279/2/5
f 281/1/5 280/1/5 279/1/5
f 282/1/5 280/1/5 281/1/5
f 287/2/5 284/2/5 283/2/5
f 288/2/5 284/2/5 287/2/5
f 289/2/5 286/2/5 285/2/5
f 290/2/5 286/2/5 289/2/5
f 295/2/5 292/2/5 291/2/5
f 296/2/5 292/2/5 295/2/5
f 297/2/5 294/2/5 293/2/5
f 298/2/5 294/2/5 297/2/5
f 301/1/5 300/1/5 299/1/5
f 302/1/5 300/1/5 301/1/5
f 303/1/5 300/1/5 302/1/5
f 304/1/5 300/1/5 303/1/5
f 305/1/5 303/1/5 302/1/5
f 306/1/5 303/1/5 305/1/5
f 310/1/5 308/1/5 307/1/5
f 311/1/5 308/1/5 310/1/5
f 313/1/5 310/1/5 309/1/5
f 313/1/5 312/1/5 311/1/5
f 313/1/5 311/1/5 310/1/5
f 314/1/5 312/1/5 313/1/5
f 315/1/6 316/1/6 317/1/6
f 317/1/6 316/1/6 318/1/6
f 319/1/6 320/1/6 321/1/6
f 321/1/6 320/1/6 322/1/6
f 322/1/6 320/1/6 323/1/6
f 323/1/6 320/1/6 324/1/6
f 325/1/6 326/1/6 328/1/6
f 328/1/6 326/1/6 329/1/6
f 327/1/6 328/1/6 331/1/6
f 329/1/6 330/1/6 331/1/6
f 328/1/6 329/1/6 331/1/6
f 331/1/6 330/1/6 332/1/6
f 333/2/6 334/2/6 337/2/6
f 337/2/6 334/2/6 338/2/6
f 335/2/6 336/2/6 339/2/6
f 339/2/6 336/2/6 340/2/6
f 341/2/6 342/2/6 345/2/6
f 345/2/6 342/2/6 346/2/6
f 343/2/6 344/2/6 347/2/6
f 347/2/6 344/2/6 348/2/6
f 349/1/6 350/1/6 351/1/6
f 351/1/6 350/1/6 352/1/6
f 352/1/6 350/1/6 353/1/6
f 353/1/6 350/1/6 354/1/6
f 352/1/6 353/1/6 355/1/6
f 355/1/6 353/1/6 356/1/6
f 357/1/6 358/1/6 360/1/6
f 360/1/6 358/1/6 361/1/6
f 359/1/6 360/1/6 363/1/6
f 361/1/6 362/1/6 363/1/6
f 360/1/6 361/1/6 363/1/6
f 363/1/6 362/1/6 364/1/6
f 365/2/6 366/2/6 368/2/6
f 368/2/6 366/2/6 369/2/6
f 367/2/6 368/2/6 371/2/6
f 369/2/6 370/2/6 371/2/6
f 368/2/6 369/2/6 371/2/6
f 371/2/6 370/2/6 372/2/6
f 372/2/6 370/2/6 373/2/6
f 373/2/6 370/2/6 374/2/6
f 372/2/6 373/2/6 376/2/6
f 376/2/6 373/2/6 377/2/6
f 375/2/6 376/2/6 379/2/6
f 377/2/6 378/2/6 379/2/6
f 376/2/6 377/2/6 379/2/6
f 379/2/6 378/2/6 380/2/6
f 380/2/6 378/2/6 381/2/6
f 381/2/6 378/2/6 382/2/6
f 380/2/6 381/2/6 383/2/6
f 383/2/6 381/2/6 384/2/6
f 385/2/6 386/2/6 389/2/6
f 389/2/6 386/2/6 390/2/6
f 387/2/6 388/2/6 391/2/6
f 391/2/6 388/2/6 392/2/6
f 393/2/6 394/2/6 397/2/6
f 397/2/6 394/2/6 398/2/6
f 395/2/6 396/2/6 399/2/6
f 399/2/6 396/2/6 400/2/6
f 401/2/6 402/2/6 405/2/6
f 405/2/6 402/2/6 406/2/6
f 403/2/6 404/2/6 407/2/6
f 407/2/6 404/2/6 408/2/6
